<svg viewBox="0 0 2000 2000" xmlns="http://www.w3.org/2000/svg"><g id="Business_startup_analysis" data-name="Business startup analysis"><path d="m1412.31 319.16s-20.42-33.68 7.54-57.45 24.86-10.32 18.2-42.46 28-60.76 28-60.76l29.31 28.85 10.21 64.36-14.65 44.38z" fill="#570b7f"/><path d="m1137.34 355.74c-21.5-166.4-144.49-294.82-298.7-331.13l-89.71 381.31z" fill="#ffc700"/><path d="m1219.82 438.71-104.44-59.41s-86.55-69.68-103.86-60.14 31.94 48.71 31.94 48.71l-102.12 13.19c26.37 40.48 68.81 62.72 114.79 65.49l68.57 50.6z" fill="#ff59cf"/><path d="m1022.84 407.92a2 2 0 0 1 -2-1.94c-.29-9.05 3.33-18.79 10.47-28.17a71.73 71.73 0 0 1 10.9-11.5 2 2 0 0 1 2.5 3.12c-.2.16-20.5 16.7-19.87 36.42a2 2 0 0 1 -2 2.07z" fill="#570b7f"/><path d="m986.55 397.62a2 2 0 0 1 -.94-.24c-10.1-5.39-21.26-15.84-21.73-16.28a2 2 0 1 1 2.74-2.91c.11.1 11.25 10.52 20.88 15.66a2 2 0 0 1 -.95 3.77z" fill="#570b7f"/><path d="m922 538.3c0 215.36-174.46 391.64-391.64 391.64-216.36 0-391.67-175.34-391.67-391.64s175.31-391.63 391.63-391.63a390.87 390.87 0 0 1 137.83 25l-137.83 366.63z" fill="#ff9100"/><path d="m1529.71 300.91c-1.43 1.51-13.16 13.38-31.21 11.74-18.37-1.67-27.8-15.94-28.87-17.62l19.26-75.78 36.63 3.59z" fill="#ff59cf"/><path d="m1524 236.2 1.72-9.64-37.74-3.7q-4.65 18.24-9.28 36.49a33.35 33.35 0 0 0 18.13 1.82c19.01-3.59 26.66-23.57 27.17-24.97z" fill="#ff17b6"/><circle cx="1508.55" cy="185.09" fill="#ff59cf" r="43.74"/><path d="m1465.84 175.9c-1.57 8.29-2.78 15.44-3.69 21-2.61 16.18-2.79 20.55-1.78 25.71.67 3.35 1.94 9.82 6.33 15.19 10.42 12.75 32.74 12.48 47.48 7 16-6 24.36-18.57 27.48-23.93 0 0 1.83-3.33 9.59-26.55-51.25-11.09-31.63-6.85-85.41-18.42z" fill="#ff59cf"/><path d="m1469.63 295c-47-6.59-74.7 7.47-86.61 15-9.21 5.85-24.32 17.56-59.26 83.23-17.63 33.12-30.63 61.81-39.59 82.9l-143.5-83.57-60.58 135.15c12.69 7.94 31.42 19.28 54.59 32 84.52 46.25 126.79 69.37 165.59 66 80.44-7 129.68-118 138.08-137.64 12.1-62.07 22.65-126.44 31.28-193.07z" fill="#7df9f3"/><path d="m1380.35 364.66q-34.85 172-69.71 343.92a256.33 256.33 0 0 0 92.36 50.88c105.92 31.92 197.82-18.1 218.37-30l-18.3-329.84-73.35-98.75-60.09-5.87z" fill="#7df9f3"/><path d="m1618.32 689.32s32.87 134.64 0 329.38-223 815.54-223 815.54h-119.78l122.08-616.89 39.92-494z" fill="#ff59cf"/><path d="m1314.28 689.32c-9.18 47.65-21.31 117.61-31 202.93-18.13 158.88-28 245.35-17.09 322.49 0 0 19.86 140.51 427.3 528l68.08-73.19-302.86-507.1 67-411.23z" fill="#ff59cf"/><path d="m1287 1770.94s-20 62.46-64.91 103-59.83 102.06-59.83 102.06h251.8s33.28-57.54-4.49-195.17z" fill="#8f00cd"/><path d="m1653.53 1685.48c25 57.52 20.22 94.48 10.57 118-15.7 38.24-47.75 49.12-68.67 98.61-12.16 28.74-14.25 55.61-14.09 74h76a120 120 0 0 0 109.15-70.2q47.38-104 94.78-208l-115.51-46.25z" fill="#8f00cd"/><path d="m1325 644.4s163.24 57.14 280.52 14.53c0 0 43.14 34.21 49.88 178.89s45.84 335.09 45.84 335.09-251.94 97.2-487.94 0z" fill="#00e4e0"/><path d="m1319.77 553.74-34.62 127.83c111.81 53.63 234.19 59.75 347.78 25.3l-16.23-125.17z" fill="#7df9f3"/><path d="m1529.71 300.91s105.63-2.83 127.61 105.69 29.6 237-51.78 252.33-243-206.37-243-206.37l73.74-80.56 125.16 108.3-14.61-98s-42.83-40.6-17.12-81.39z" fill="#7df9f3"/><path d="m1469.63 295 6.59 87.31 53.49-81.43s-33.71-37.54-60.08-5.88z" fill="#ff59cf"/><path d="m1471.64 287.12-36.4 6.6s-14.28 103.89-6.45 107.89 47.43-19.27 47.43-19.27z" fill="#fff3ff"/><path d="m1529.3 293.32-53.08 89s26.14 36.58 37.45 31.75 51-108.24 51-108.24z" fill="#fff3ff"/><path d="m1537 196.88s-17.31-3.33-14.42-24.41-14.06-24-14.06-24-11.36 26.86-40.82 21l-3.57 15.61s-18.78-26.6-8.13-45.91 22.64-1.55 36.39-20.42 45.94-18.64 51.94 3.78c0 0 38.39-5.55 51 22.85s-18 54.2 26 71.15 1.11 56.46 38.62 81.54-7.51 90.09-7.51 90.09-25.44-65.65-123.14-94.84c0 0-23.75-26.27-8.23-51s15.93-45.44 15.93-45.44z" fill="#570b7f"/><ellipse cx="1539.72" cy="207.84" fill="#ff59cf" rx="20.24" ry="15.57" transform="matrix(.558 -.83 .83 .558 507.44 1369.03)"/><path d="m1535.84 218.54c-1.75 0-3.65-1.06-4.34-4.1a2 2 0 0 1 3.9-.89c.18.82.42 1 .43 1a3.11 3.11 0 0 0 1.51-.88 5.27 5.27 0 0 0 1.91-3.43c0-.28-.08-.45-.18-.52a3.91 3.91 0 0 0 -2.45 0 2 2 0 0 1 -2.34-2.85c5.26-10 9.39-10.14 10.92-9.74 4.07 1.06 4.15 6.35 3 10.38a2 2 0 0 1 -3.85-1.08c.41-1.47.73-4.14.13-5.17a.41.41 0 0 0 -.34-.26c-.77 0-2.66 1.9-4.52 4.68a4.45 4.45 0 0 1 3.6 4.24c.29 3.69-3.74 8.62-7.38 8.62z" fill="#570b7f"/><ellipse cx="1476.71" cy="216.84" fill="#570b7f" rx="9" ry="5.5" transform="matrix(.256 -.967 .967 .256 889.25 1588.92)"/><path d="m1203.17 213.85a83.32 83.32 0 0 1 148.6-75.41 83.32 83.32 0 0 1 -148.6 75.41zm43.83-97.74a67.32 67.32 0 1 0 90.49 29.57 67.39 67.39 0 0 0 -90.49-29.57z" fill="#570b7f"/><path d="m1376.42 381.1a10 10 0 0 1 -8.92-5.48l-62.4-122.94a10 10 0 0 1 17.84-9.05l62.39 122.94a10 10 0 0 1 -8.91 14.53z" fill="#570b7f"/><rect fill="#f7e00b" height="111.64" rx="14.34" transform="matrix(.892 -.453 .453 .892 -6.99 652.76)" width="31.96" x="1344.74" y="285.16"/><path d="m1485.45 414.53-72.13-64.85a309 309 0 0 1 -21.6-32.11c-6.41-11-10.83-20.23-18-20.49a11 11 0 0 0 -8.6 4.12c-5.9 7.58.75 24.92 15.37 43.39 0 0-28.8 1.31-48.74-25.43 0 0-16.66 7.81-3.63 25.43 0 0-12.65 8.85 3.33 23.28 0 0-13.32 10.19 7.32 20.3-21.78 15.27 27.58 29.41 53.6 36.07l39.94 47.27a113.25 113.25 0 0 0 53.14-56.98z" fill="#ff59cf"/><path d="m1347.79 361.57a43.23 43.23 0 0 1 -21.37-15.89 2 2 0 0 1 3.35-2.18 39.87 39.87 0 0 0 19.23 14.26 2 2 0 0 1 -1.23 3.81z" fill="#570b7f"/><path d="m1352.81 381.64c-1.54 0-14-5.36-22.63-12.2a2 2 0 0 1 2.49-3.14 82.25 82.25 0 0 0 20.8 11.46 2 2 0 0 1 -.66 3.88z" fill="#570b7f"/><path d="m1360.72 397.62c-6 0-17.43-4.74-22.91-7.69a2 2 0 1 1 1.88-3.52c.13.06 12.39 6.58 21.17 7.21a2 2 0 0 1 -.14 4z" fill="#570b7f"/><path d="m1541.15 449.88-73.9-54.6-68.46 96.56 65.46 72.55z" fill="#7df9f3"/><g fill="#570b7f"><path d="m1300.27 627.72a2 2 0 0 1 -1.87-2.71c.41-1.09 41.25-109.53 56.35-205.4a2 2 0 1 1 4 .62c-15.17 96.29-56.15 205.11-56.56 206.19a2 2 0 0 1 -1.92 1.3z"/><path d="m1305.46 559.07a2 2 0 0 1 -2-2.07c1.3-37.94-20.82-79.45-21-79.86a2 2 0 0 1 3.52-1.9c.94 1.73 22.86 42.85 21.53 81.9a2 2 0 0 1 -2.05 1.93z"/><path d="m1572.7 501.9-106.86-105.19a2 2 0 1 1 2.81-2.85l101.64 100.06c-4.83-19.8-16-77.33 1.92-129.91a2 2 0 0 1 3.79 1.29c-21.5 63.2-.2 133.88 0 134.59a2 2 0 0 1 -3.3 2.01z"/><path d="m1585.78 663.28a83.21 83.21 0 0 1 -40.26-10.28c-36-19.63-123.76-128.36-148.31-160a2 2 0 0 1 0-2.39l24.32-34.3a2 2 0 0 1 3.27 2.31l-23.46 33.09c10.52 13.42 108 137 146.14 157.74 39.44 21.49 77 .87 77.39.66a2 2 0 1 1 2 3.48 92.06 92.06 0 0 1 -41.09 9.69z"/><path d="m1603.06 579.37a2 2 0 0 1 -2-1.88c-2.27-38.23-28.34-75.49-28.6-75.86a2 2 0 1 1 3.27-2.31c1.1 1.56 27 38.54 29.32 77.93a2 2 0 0 1 -1.99 2.12z"/><path d="m1485.35 1533.11a2 2 0 0 1 -1.93-2.55l62.07-220a2 2 0 1 1 3.85 1.09l-62.07 220a2 2 0 0 1 -1.92 1.46z"/><path d="m1364.28 1387.84a2 2 0 0 1 -2-2.39l33.38-168.45a2 2 0 0 1 3.93.77l-33.35 168.49a2 2 0 0 1 -1.96 1.58z"/></g><path d="m1308.41 1668.15 131.66 17.21-23.81 122.22s-14.15-18.68-35.9 6.21-63.62-48-104.82-14.91z" fill="#fff3ff"/><path d="m1554.07 1604.62 113.66-92.11 97.62 146.87s-34.35-8-31.24 33.28-62.81 57-62.81 57z" fill="#fff3ff"/><path d="m1427.6 1873.48s-22.67 81-69.79 71.29-113.18-89.39-160.27-43.14c0 0-49.22 24-35.28 74.39h251.8s43.03-44.67 13.54-102.54z" fill="#00e4e0"/><path d="m1589.19 1919.4s25.86-29.23 70.52-10.58 78 17.21 81.5-35.34 4-67.19 46.16-93.38 17.63-104.84 17.63-104.84l56.32 22.55-89.65 226.07a82.6 82.6 0 0 1 -76.78 52.14h-113.55s-16.8-24.29 7.85-56.62z" fill="#00e4e0"/><path d="m1247.94 1845.22s30.21 18.32 50.91 5.89 38.59-46.53 38.59-46.53-30.46-33.52-61.9-5.7z" fill="#00e4e0"/><path d="m1647.72 1830.47s34 19 53.55-8.83 13.22-92 13.22-92-20.79 13.47-43.19 20c3.4 28.5-4.13 57.51-23.58 80.83z" fill="#00e4e0"/></g></svg>