<?xml version="1.0"?>
<svg xmlns="http://www.w3.org/2000/svg" xmlns:xlink="http://www.w3.org/1999/xlink" version="1.1" id="Layer_1" x="0px" y="0px" viewBox="0 0 2000 2000" style="enable-background:new 0 0 2000 2000;" xml:space="preserve">
<style type="text/css">
	.st0{fill:#00E4E0;}
	.st1{fill:#FFF3FF;}
	.st2{fill:#8F00CD;}
	.st3{fill:#F7E00B;}
	.st4{fill:#FF83DF;}
	.st5{fill:#FF9100;}
	.st6{fill:#570B7F;}
	.st7{fill:#FF17B6;}
	.st8{fill:#FF59CF;}
	.st9{fill:#E4CAE5;}
</style>
<g id="Development_product">
	<path class="st0" d="M946,972.2H104.2c-18.9,0-34.3-15.3-34.3-34.3V315.6c0-18.9,15.3-34.3,34.3-34.3H946   c18.9,0,34.3,15.3,34.3,34.3v622.3C980.2,956.8,964.9,972.2,946,972.2z"/>
	<path class="st1" d="M714,518.2c11.6-49,11.6-100.1,0-149.2h149.2c11.7,49,11.7,100.2,0,149.2C863.2,518.1,869.3,518.2,714,518.2z"/>
	<circle class="st1" cx="263.6" cy="332.1" r="15.1"/>
	<circle class="st1" cx="203.9" cy="332.1" r="15.1"/>
	<circle class="st1" cx="144.2" cy="332.1" r="15.1"/>
	<path class="st2" d="M477.9,882.5H328.7c11.2-47.4,12-98.5,0-149.2h149.2C497.8,816.3,477.9,879.2,477.9,882.5z"/>
	<rect x="396.8" y="719.4" class="st3" width="21" height="37.1"/>
	<path class="st1" d="M317.2,637H168c11.2-47.4,12-98.5,0-149.2h149.2C328.8,536.1,329.1,587.3,317.2,637z"/>
	<path class="st4" d="M782,672.7c-26.4-12.1-49.6-22.2-68.6-30.4c-15.5-6.6-19.8-8.4-26.6-8.7c-38.6-1.6-75.8,47.7-68.6,58.8   c2.6,4.1,12.8,5.7,47.6-6.8l16.7,42l62.5-19.2L782,672.7z"/>
	<path class="st4" d="M627.5,723.3c0,0-21.5,43-7.7,51.9s28.1-17.9,28.1-17.9s-5,21.3,8.2,25.3s26.5-32.3,26.5-32.3   s-13.4-29.3-13.8-29.2S627.5,723.3,627.5,723.3z"/>
	<path class="st2" d="M661.2,750.4l-77.1-4c16.8-21.1,33.6-42.1,50.4-63.2L1005.1,536l26.7,67.2L661.2,750.4z"/>
	
		<rect x="635.5" y="640.8" transform="matrix(0.9293 -0.3693 0.3693 0.9293 -184.0447 344.3534)" class="st3" width="343.9" height="24.3"/>
	<path class="st5" d="M1042.1,545.9l8.6,21.5c5.6,14-1.2,29.9-15.3,35.4c-23.8,9.4-47.8,18.9-47.6,18.9   c-28.2-70.9-27.7-69.4-27.6-69.4l50.4-20C1023,527.4,1037.1,533.4,1042.1,545.9z"/>
	
		<rect x="960.3" y="545.8" transform="matrix(0.9293 -0.3693 0.3693 0.9293 -147.2752 402.0495)" class="st6" width="32.6" height="79.8"/>
	<path class="st6" d="M566.2,740.1l27.3-9.2c4.6-1.6,9.6,0.9,11.1,5.5l0.2,0.6c1.6,4.6-0.9,9.6-5.5,11.1l-27.3,9.2   c-4.6,1.6-9.6-0.9-11.1-5.5l-0.2-0.6C559.1,746.6,561.6,741.6,566.2,740.1z"/>
	<path class="st4" d="M851.3,860.6c-6.8-36-15.8-71.5-27.2-106.3c-11-33.8-18.9-50.4-32.2-66.8c-16.3-20.2-46-46.2-61.8-38.3   c-5.3,2.7-9,8.8-9.9,14.2c-1.4,8.8,5.8,13.6,11.1,26.6c3.2,7.9,4.9,16.2,5,24.7L672.4,746c5.7,5.1,13.3,13.4,16.3,25.3   c2.5,10,0,15.4,3.1,23.8c2.3,6.4,8,14.9,23.6,22.3l12.7,88.2L851.3,860.6z"/>
	<path class="st6" d="M744.9,751.9c-17.8-15.3-10.6-37.7-10.5-37.9c0.4-1,1.5-1.6,2.5-1.2c1,0.3,1.6,1.5,1.3,2.5l0,0   c-0.3,0.8-6.5,20,9.3,33.6c1.4,1.2,0.5,3.5-1.3,3.5C746.3,752.4,745.7,752.5,744.9,751.9z"/>
	<path class="st1" d="M1243.1,740.7c-123.9-21.9-178.2,12.4-201.3,33.2c-27.3,24.6-29.7,50.6-129.4,255.6l-67.6-203.8l-123.1,41.7   c-6.4,48.6-7.9,97.7-4.4,146.6c5.5,76.6,17.5,245.3,101.2,278.5c69.8,27.8,160.8-50.3,201.4-85.2   C1185.6,1064.9,1229.6,856.7,1243.1,740.7z"/>
	<circle class="st6" cx="1270.5" cy="508" r="64.6"/>
	<path class="st7" d="M518.7,509.9c0,0-27.3,27.9-17.1,62s12.7,42.3,3.2,58.2c0,0,22.5-4.1,22.8-29.2c0,0,23.2,34.9,10.8,58.9   s-7.6,44.8-7.6,44.8s-1.6-21.2,26.6-30.6s47.6-51,33-84.8c0,0,12.4,1.6,15.7,22.8c0,0,21.4-46.9-17-97.8S518.7,509.9,518.7,509.9z"/>
	<path class="st3" d="M640.2,320c2.1,103.3-42.2,223.8-84.6,223.8S469,423.3,471.1,320c2.3-113,60-193.3,84.6-223.8   C580.2,126.7,637.9,207.1,640.2,320z"/>
	<path class="st3" d="M622.4,530.5c-42.7,17.9-90.8,17.9-133.5,0l13.6-46.1h106.2L622.4,530.5z"/>
	<path class="st6" d="M557.1,382.3c-39,0-70.5-31.6-70.5-70.5c0-39,31.6-70.5,70.5-70.5s70.5,31.5,70.5,70.6   C627.6,350.7,596.1,382.3,557.1,382.3z M557.1,245.2c-36.7,0-66.5,29.8-66.5,66.5s29.8,66.5,66.5,66.5c36.6,0,66.5-29.7,66.5-66.5   C623.6,275,593.9,245.3,557.1,245.2L557.1,245.2z"/>
	<ellipse class="st6" cx="557.2" cy="311.8" rx="52.8" ry="52.8"/>
	<path class="st3" d="M440,434.5c-46.1,51-30.1,116.4-27.5,125.3c2.2,7.2,5.2,14.8,12.5,12.4c3.2-1.2,5.6-3.9,6.3-7.2   c9.7-38.5,34.2-70.5,72.6-82.3c-11.2-25-19.1-51.3-23.7-78.3C480.8,404.4,459.8,412.8,440,434.5z"/>
	<path class="st3" d="M631.7,406.1c15.2,7.4,28.8,17.6,40.2,30.1c46.1,51,30.2,116.4,27.5,125.3c-2.2,7.2-5.2,14.8-12.5,12.4   c-3.2-1.2-5.6-3.9-6.3-7.2c-9.7-38.5-34.2-70.5-72.6-82.3C619.1,459.4,627.1,433.1,631.7,406.1L631.7,406.1z"/>
	<path class="st3" d="M555.7,591.6L555.7,591.6c-3.9,0-7.2-3.1-7.3-7.1l-6.3-165.6c-0.3-6.8,5.1-12.6,11.9-12.9   c8.4-0.3,15.6,6.7,15.2,15.4L563,584.5C562.9,588.5,559.7,591.6,555.7,591.6z"/>
	<path class="st6" d="M503.9,484.7c-0.7,0-1.3-0.3-1.7-0.9c-9.1-14.1-23.4-76.3-24-79c-0.2-1.1,0.4-2.2,1.5-2.4s2.2,0.4,2.4,1.5   c0.1,0.6,14.7,64.1,23.5,77.7C506.5,483,505.4,484.7,503.9,484.7z"/>
	<path class="st6" d="M607.9,486.4c-1.5,0-2.5-1.5-1.8-2.9c12.8-27,23.5-77.4,23.6-77.9c0.3-1.1,1.4-1.7,2.4-1.4   c1,0.3,1.6,1.2,1.5,2.2c-0.1,0.5-10.9,51.4-23.9,78.8C609.4,485.9,608.7,486.4,607.9,486.4z"/>
	<path class="st6" d="M546.8,544.1c-1.1,0-2-0.8-2-1.9L540.1,419c0.7-8,6.8-14.3,14.2-14.9c8.5-0.8,16.1,5.9,17,14.7l-4.7,123.5   c0,1.1-1,2-2.1,1.9c-1.1,0-2-1-1.9-2.1l4.7-123.2c-0.6-6.3-6.4-11.3-12.6-10.8c-5.7,0.7-10.2,5.3-10.6,11l4.7,122.9   C548.8,542.8,548.2,544,546.8,544.1L546.8,544.1z"/>
	<path class="st6" d="M1588.6,1631l147-66.2l190.8,218.4c-24.5,12.1-57.9,23.2-92.4,14c-45.6-12.2-57-50.3-104.1-65.6   c-21.9-7.1-54.1-10.1-99.7,7.7C1616.3,1703.2,1602.5,1667.1,1588.6,1631z"/>
	<path class="st4" d="M1215.2,756c-1.5,2-14.1,18.2-36.3,18.7c-22.6,0.6-36.1-15.4-37.6-17.3l12.6-94.9l45.1-0.9L1215.2,756z"/>
	<path class="st8" d="M1199,678.1l0.7-12l-46.4,0.9l-6.1,45.7c7.3,1.9,15,1.8,22.3-0.4C1192.1,705.3,1198.6,679.9,1199,678.1z"/>
	<circle class="st4" cx="1172.9" cy="618.2" r="53.6"/>
	<path class="st4" d="M1119.6,613.1c-3,44.2-2.2,50.9,0,57.6c1.3,4,3.8,11.7,9.9,17.6c14.5,14,41.6,10.5,58.7,1.7   c18.5-9.5,27-26.1,30-33c0,0,1.8-4.3,7.9-33.7C1162.2,617.1,1186.7,619.5,1119.6,613.1z"/>
	<path class="st1" d="M1139,664.4l27.8-1.3c-2.2,2.6-7.3,7.7-14.8,9.1c-2.6,0.5-6,1.1-9.1-1C1140.8,669.5,1139.4,667.1,1139,664.4z"/>
	<path class="st2" d="M959.7,1344.2c-178.8,233.7-331.2,261.9-337.4,371.2c0,0-2.2,38.7,18.7,73.9c57.4,96.3,272.5,100.6,529.3,30   c4.8-51.3,9.7-102.5,14.5-153.8l-189,18.1c0,0,155.7-31.7,219.2-119.9s43.2-171.9,43.2-171.9L959.7,1344.2z"/>
	<path class="st2" d="M1168.9,1372c-77.6,84.8-145.4,149.1-194.5,193.4c-99.5,89.7-172,141.9-165.1,212.1   c2.8,29.1,18.1,49.5,24.9,58.2c83.9,109.1,325.7,63.7,496.5,31.7c126-23.7,249.6-58.8,369.3-104.7c-17.8-52.3-35.7-104.7-53.5-157   c-85.6,16.5-170.4,27.7-246.8,33.7c58.4-67.3,72.1-157.8,25.2-252.2L1168.9,1372z"/>
	<path class="st1" d="M1127.2,744.2l7.4-18.4c1.8-4.4,5.7-7.5,10.4-8.2c13.8-2,43.6-4.8,65.8,2.6c4.7,1.6,7.9,6,7.8,11l-0.5,31.2   L1127.2,744.2z"/>
	<path class="st1" d="M1022.9,883.8c-23.7,95-15.9,147.2-22,235.5c-3.7,53.4-13.3,130.9-41.3,224.9c32.7,25.5,88.3,61.7,165.1,80   c144.1,34.3,262.4-18.3,300-37c7.4-141.1-3-256.2-15.1-338.6c-13.2-90.5-28.9-144.2-63.9-198s-77.2-89.2-107.5-110.6l-72.8-12.4   c-15.4,0.8-37.3,4.2-59.5,16.5C1062.3,768.5,1040.1,815.2,1022.9,883.8z"/>
	<path class="st1" d="M1227.4,738.3c25.8,4,63.8,13,103.5,35.9c107.3,61.9,142.6,176.2,162.6,244.6c34,116,69,356.5-23.6,402.7   c-77.2,38.6-242.1-25.7-149.7-365l-46.9-129.7C1223.8,875.3,1209,804.2,1227.4,738.3z"/>
	<path class="st6" d="M1205.8,633c0,0-49.1-25.1-42.6-62.8c0,0-33,6.4-43.2,39.1c0,0-32.2-44.6-5.5-75.6s68.7-3.1,68.7-3.1   c35.7-2,69.6,11.4,84,36.5c21.4,37.4,0.6,102.8-62.1,130.7C1205.1,697.8,1181.7,665,1205.8,633z"/>
	
		<ellipse transform="matrix(0.4577 -0.8891 0.8891 0.4577 88.1095 1427.2246)" class="st4" cx="1214" cy="641.4" rx="24.8" ry="19.1"/>
	<path class="st6" d="M1207.3,654.8c-2.3,0-4.3-1.4-5.3-4c-0.4-1,0.1-2.2,1.1-2.6c1-0.4,2.1,0.1,2.5,1c0.7,1.7,1.6,1.6,2.4,1.4   c2.9-0.9,6.2-5.9,4.2-7c-1.1-0.6-3.5-0.2-4.9,0.3c-1.7,0.6-3.3-1.1-2.5-2.8c1.1-2.3,7-13.8,13.5-13.1c1.6,0.1,3.2,1,4.1,2.3   c2.4,3.3,1.4,8.8,1.2,9.4c-0.2,1.1-1.3,1.8-2.4,1.6s-1.8-1.3-1.6-2.4c0.1,0,1.1-6.9-1.8-7c-2.1-0.2-5.2,3.5-7.5,7.3   c2.9-0.1,5.7,1.3,6.2,4.2C1217.8,648.2,1212.2,654.6,1207.3,654.8z"/>
	<path class="st6" d="M845.9,1868.9c-31.1-28-45.4-60.2-42.4-95.8C812,1670.3,963,1570.4,972.8,1564l50.6-106c0.5-1,1.6-1.5,2.6-1   s1.5,1.6,1,2.6c-0.2,0.5-10.9,22.9-50.9,106.6c-0.2,0.3-0.4,0.6-0.7,0.8c-1.6,1-159.4,102.6-168,206.3c-2.8,34.3,11,65.4,41.1,92.5   c1.4,1.2,0.5,3.5-1.3,3.5C847.4,1869.3,846.6,1869.5,845.9,1868.9z"/>
	<path class="st6" d="M1072.9,1782.3c-0.1-1.1,0.7-2.1,1.8-2.2c176-30.9,322.3-141.2,323.8-142.3c0.8-0.7,2.1-0.7,2.8,0.2   c0.8,0.9,0.6,2.3-0.4,3c-1.5,1.1-148.5,112-325.5,143.1C1074.2,1784.4,1073,1783.5,1072.9,1782.3z"/>
	<path class="st4" d="M1411.3,1069.1l0.2-50.1c0,0,88.7-21.3,81.4-74.2S1384.8,895,1384.8,895c-14.3,11.1-26,25.2-34.3,41.3   c-13,24.7-25.3,92.6-30,120.3c0.4,0,10.2,14.9,31.6,21.9C1382,1088,1407.6,1071.6,1411.3,1069.1z"/>
	<path class="st6" d="M984.1,1216.8h-0.3c-1.1-0.2-1.8-1.2-1.7-2.3c0.3-1.8,29.4-185.5,28.6-281.6c-0.4-50.7,14.5-87.9,27.1-110.2   c13.7-24.2,27.3-36.2,27.9-36.7c0.8-0.8,2-0.8,2.8,0c0.9,0.9,0.8,2.3-0.2,3c-0.6,0.5-54.4,48.6-53.6,143.8   c0.8,96.4-28.3,280.4-28.6,282.2C985.9,1216,985.1,1216.7,984.1,1216.8z"/>
	<path class="st6" d="M1361.6,1420.8c-0.5,0-1-0.2-1.3-0.5c-129.5-115.4-48.5-345.8-42.1-363.4c-8-10.9-83.7-118.4-49.5-245.9   c0.2-1.1,1.2-1.8,2.3-1.6c1.2,0.2,1.9,1.5,1.5,2.6c-35.4,131.8,48.6,242.2,49.5,243.3c0.4,0.6,0.5,1.3,0.3,1.9   c-0.9,2.4-91.3,242.5,40.7,360C1364.3,1418.5,1363.4,1420.8,1361.6,1420.8z"/>
	<path class="st6" d="M919.4,1166.6c-1.2,0.1-2.2-1.1-2-2.3l0,0c11.8-61.2-6.8-133.5-7-134.2c-0.3-1.1,0.3-2.2,1.3-2.5   c1.1-0.3,2.3,0.4,2.5,1.5c0.2,0.7,19,73.9,7.1,136C921.2,1165.9,920.4,1166.6,919.4,1166.6z"/>
	<path class="st6" d="M1485.5,1286.4c-0.9,0-1.6-0.5-1.9-1.3l-74.2-215.2c-0.4-1,0.1-2.2,1.1-2.6s2.2,0.1,2.6,1.1   c0,0.1-1.4-4,74.3,215.4C1487.9,1285,1486.9,1286.4,1485.5,1286.4z"/>
	<path class="st4" d="M1475.6,988.8c0,0,54.7-30.1,56.3-56.8s-25.3-5.9-50,10.6s-27.8,38.1-27.8,38.1S1455.3,1001.9,1475.6,988.8z"/>
	<path class="st3" d="M1352,807c0-75.3,61.3-136.6,136.6-136.6s136.7,61.3,136.7,136.6s-61.3,136.6-136.6,136.6S1352,882.3,1352,807   z M1400.4,807c0,48.7,39.5,88.2,88.2,88.2s88.2-39.5,88.2-88.2s-39.5-88.2-88.2-88.2l0,0C1440,718.9,1400.5,758.3,1400.4,807   L1400.4,807z"/>
	<rect x="1465.2" y="641" class="st3" width="47" height="53.6"/>
	<rect x="1465.2" y="919.4" class="st3" width="47" height="53.6"/>
	<rect x="1322.7" y="783.5" class="st3" width="53.6" height="47"/>
	<rect x="1601.1" y="783.5" class="st3" width="53.6" height="47"/>
	
		<rect x="1363.4" y="881.9" transform="matrix(0.7071 -0.7071 0.7071 0.7071 -233.0558 1248.1993)" class="st3" width="53.6" height="47"/>
	
		<rect x="1560.3" y="685.1" transform="matrix(0.7071 -0.7071 0.7071 0.7071 -36.1894 1329.8014)" class="st3" width="53.6" height="47"/>
	
		<rect x="1366.7" y="681.8" transform="matrix(0.7071 -0.7071 0.7071 0.7071 -93.8715 1190.5822)" class="st3" width="47" height="53.6"/>
	
		<rect x="1563.6" y="878.6" transform="matrix(0.7071 -0.7071 0.7071 0.7071 -175.3743 1387.4128)" class="st3" width="47" height="53.6"/>
	<path class="st4" d="M1355.2,928.6c1.1-2.4,4.4-9.3,8.1-12.2c9.7-7.5,21.9-11.8,30.3-20.7c8.9-9.6,15.2-19.8,21.5-18.3   c6.1,1.5,8,12.8,8.3,14.3c0.9,5.3,0.8,13.3-6.8,27.2c-7.4,13.4-17.5,25-29.7,34.2c-5.6,3.2-14.1,4.1-20,1.6   C1358.6,951.3,1353.1,940.5,1355.2,928.6z"/>
	<path class="st4" d="M1456.9,869.2c0,0-1.8-24.1-16.7-17.3s-40.2,48.3-28.9,64.8s29.6-12.3,29.6-12.3s-18.2,30.5,0,33.2   s31.1-24.3,31.1-24.3s-20.6,29.4-5.1,35.6c12.7,5.1,40-17.3,45.8-43.9c1.2-5.8,3.7-17-2.6-22.5c-5.8-5.1-17.4-4.1-28.3,3.4   c3.2-13-3.8-23.4-11-24.4C1465.8,860.8,1460.5,864.2,1456.9,869.2z"/>
	<path class="st6" d="M1401.4,977.6c-1.5,0-2.5-1.6-1.8-2.9c10.1-18.9,0.5-33,0.1-33.5c-0.5-0.8-0.5-1.8,0.1-2.5   c4.5-5.2,26.5-32.3,17.3-53.8c-1-2.2-2.2-4.3-3.7-6.2c-0.7-0.8-0.7-2.1,0.2-2.8c0.8-0.7,2.1-0.7,2.8,0.2c1.1,1.3,3.1,4.2,4.4,7.2   c9.6,22.3-10.7,49.3-17,56.8c2.5,4.3,8.8,18.5-0.7,36.4C1402.9,977.1,1402.2,977.6,1401.4,977.6z"/>
	<path class="st6" d="M1418.3,923.8c-1,0-2-0.1-3-0.3c-1.1-0.2-1.8-1.3-1.5-2.4c0.2-1.1,1.3-1.8,2.4-1.5l0,0   c16.8,3.6,33.8-35.5,39-50.9c0.4-1,1.5-1.6,2.5-1.3s1.6,1.5,1.3,2.5C1458.1,872.2,1440.4,923.8,1418.3,923.8z"/>
	<path class="st6" d="M1437,937.4c-6.2-4.6-7.1-14.6-2.5-27.5c0.3-1.1,1.4-1.7,2.5-1.4c1.2,0.3,1.8,1.6,1.3,2.7   c-8,22.5,3.2,30.3,17.6,19.7c15-11.2,23.9-45.2,24-45.6c0.2-1.1,1.3-1.8,2.4-1.5c1.1,0.2,1.8,1.4,1.5,2.5   c-0.4,1.5-9.3,35.8-25.5,47.8C1451.8,938.9,1443.3,942.1,1437,937.4z"/>
	<path class="st6" d="M1465.9,950.8c-12-6.4-3.8-25.8-3.4-26.6c0.4-1,1.6-1.5,2.6-1c1,0.4,1.5,1.6,1,2.6l0,0   c-0.1,0.2-7.2,16.8,1.6,21.5c9,4.8,19.3-6.5,19.4-6.6c0.7-0.8,2-0.9,2.8-0.2s0.9,2,0.2,2.8C1483.6,950.1,1474.2,955.2,1465.9,950.8   z"/>
	<path class="st1" d="M1673.7,1592.6c0,0,32,46.6,71.2,46.8s23.9,53.1,55.2,71.3s49.9,28.2,63.5,46.7s11.5,42.1,11.5,42.1   s42.8,20.4,53.5-18.2l-193.2-216.5L1673.7,1592.6z"/>
	<path class="st9" d="M1928.8,1781.3c-7.3,7.9-77.2-44.8-131.4-111.1c-36.5-44.8-68.9-99.4-61.8-105.4c6.9-5.8,53.1,32,85.8,66.9   c1.2,1.2,2,2.1,2.8,3C1874.1,1688.9,1937.7,1771.7,1928.8,1781.3z"/>
	<rect x="809" y="868.8" class="st3" width="5.3" height="9.3"/>
	<rect x="945.5" y="837.9" class="st3" width="5.3" height="9.3"/>
</g>
</svg>
